<?xml version="1.0" encoding="UTF-8" standalone="no"?>
<svg
   id="Layer_1"
   data-name="Layer 1"
   viewBox="0 0 82.24 66.804201"
   version="1.1"
   sodipodi:docname="twitter.svg"
   width="82.239998"
   height="66.804199"
   inkscape:version="1.4 (86a8ad7, 2024-10-11)"
   xmlns:inkscape="http://www.inkscape.org/namespaces/inkscape"
   xmlns:sodipodi="http://sodipodi.sourceforge.net/DTD/sodipodi-0.dtd"
   xmlns="http://www.w3.org/2000/svg"
   xmlns:svg="http://www.w3.org/2000/svg"
   xmlns:rdf="http://www.w3.org/1999/02/22-rdf-syntax-ns#"
   xmlns:cc="http://creativecommons.org/ns#"
   xmlns:dc="http://purl.org/dc/elements/1.1/">
  <sodipodi:namedview
     id="namedview2"
     pagecolor="#ffffff"
     bordercolor="#000000"
     borderopacity="0.25"
     inkscape:showpageshadow="2"
     inkscape:pageopacity="0.0"
     inkscape:pagecheckerboard="0"
     inkscape:deskcolor="#d1d1d1"
     inkscape:zoom="6.7778597"
     inkscape:cx="41.015898"
     inkscape:cy="33.417629"
     inkscape:window-width="1920"
     inkscape:window-height="1009"
     inkscape:window-x="-8"
     inkscape:window-y="-8"
     inkscape:window-maximized="1"
     inkscape:current-layer="Layer_1" />
  <defs
     id="defs1">
    <style
       id="style1">.cls-1{fill:#1ca1f1;}.cls-1,.cls-2{fill-rule:evenodd;}.cls-2{fill:#fff;}</style>
  </defs>
  <title
     id="title1">twitter-app</title>
  <path
     class="cls-2"
     d="m 82.24,7.8841604 a 33.3,33.3 0 0 1 -9.68,2.6499996 17,17 0 0 0 7.42,-9.3099996 34.05,34.05 0 0 1 -10.71,4.1 16.87,16.87 0 0 0 -29.17,11.5199996 17.45,17.45 0 0 0 0.43,3.84 A 47.86,47.86 0 0 1 5.78,3.0541604 16.83,16.83 0 0 0 3.49,11.53416 v 0 a 16.84,16.84 0 0 0 7.5,14 17,17 0 0 1 -7.64,-2.11 v 0.22 a 16.86,16.86 0 0 0 13.53,16.58 17.19,17.19 0 0 1 -4.45,0.6 17.58,17.58 0 0 1 -3.18,-0.31 16.9,16.9 0 0 0 15.75,11.71 34,34 0 0 1 -25,7 47.69,47.69 0 0 0 25.86,7.58 c 31,0 48,-25.7 48,-48 0,-0.74 0,-1.46 -0.05,-2.19 a 33.82,33.82 0 0 0 8.41,-8.7099996 z"
     id="path2"
     style="fill:#8e68e8;fill-opacity:1" />
  <metadata
     id="metadata2">
    <rdf:RDF>
      <cc:Work
         rdf:about="">
        <dc:title>twitter-app</dc:title>
      </cc:Work>
    </rdf:RDF>
  </metadata>
</svg>
